<svg width="78" height="78" viewBox="0 0 78 78" fill="none" xmlns="http://www.w3.org/2000/svg">
<g filter="url(#filter0_d_1_4851)">
<rect x="12" y="12" width="52" height="52" rx="26" fill="#F8F8F8" shape-rendering="crispEdges"/>
<g clip-path="url(#clip0_1_4851)">
<path d="M28.5781 26.0341C28.3344 26.0716 27.8422 26.2497 27.5703 26.3903C27.2 26.5872 26.5859 27.2012 26.3891 27.5715C26.3094 27.7262 26.1922 27.9981 26.1313 28.1809L26.0234 28.509V32.4698C26.0234 36.7587 26.0188 36.6415 26.2813 37.2321C26.6234 37.9915 27.4109 38.6946 28.1422 38.8867L28.3391 38.9383L28.3531 39.9133C28.3672 40.996 28.3953 41.0945 28.6859 41.2773C28.8734 41.3945 29.1828 41.4085 29.3656 41.3101C29.4359 41.2726 29.9891 40.7429 30.5938 40.1382L31.6953 39.032H31.9109H32.1313L32.1547 37.9399C32.1734 36.9977 32.1875 36.8056 32.2766 36.5056C32.7313 34.9634 33.875 33.8197 35.4219 33.351C35.7688 33.2479 35.8016 33.2479 39.1156 33.2291L42.4531 33.2151V30.9323C42.4531 28.4293 42.4438 28.3262 42.1672 27.7496C41.8766 27.1403 41.375 26.6387 40.7422 26.3247C40.0625 25.9872 40.3438 26.0012 34.2031 26.0106C31.175 26.0106 28.6438 26.0247 28.5781 26.0341Z" fill="black"/>
<path d="M35.8062 34.7209C34.7469 34.9975 33.9125 35.8459 33.6359 36.9146C33.5516 37.2474 33.5469 37.463 33.5469 41.0957C33.5469 43.5941 33.5656 45.019 33.5984 45.2018C33.6219 45.3518 33.7437 45.6799 33.8609 45.9237C34.2266 46.6783 34.8828 47.2408 35.7266 47.5267L36.0547 47.6345L40.1797 47.6486L44.3047 47.6627L45.4531 48.8017C46.6766 50.0204 46.7281 50.0579 47.0891 49.9782C47.2531 49.9454 47.4875 49.7626 47.5766 49.6079C47.6141 49.5423 47.6422 49.1767 47.6562 48.5298L47.6797 47.5502L47.8672 47.4939C48.1812 47.4002 48.6172 47.1564 48.9172 46.908C49.4469 46.4674 49.85 45.7409 49.9531 45.0518C49.9812 44.8596 50 43.2331 50 41.0488C50 36.9334 50.0047 36.999 49.6766 36.3381C49.3625 35.7053 48.8609 35.2037 48.2516 34.9131C47.6328 34.6178 47.9 34.6272 41.75 34.6319C36.3875 34.6319 36.1344 34.6366 35.8062 34.7209Z" fill="black"/>
<path d="M42.1275 41.7269C42.088 41.735 42.0524 41.7564 42.0269 41.7877C42.0014 41.8189 41.9875 41.858 41.9875 41.8984V42.2748C41.9875 42.3444 41.9598 42.4112 41.9106 42.4604C41.8614 42.5096 41.7946 42.5373 41.725 42.5373C41.6554 42.5373 41.5886 42.5096 41.5394 42.4604C41.4902 42.4112 41.4625 42.3444 41.4625 42.2748V41.5185C41.4625 41.4521 41.4877 41.3881 41.533 41.3395C41.5783 41.2909 41.6404 41.2613 41.7066 41.2567C42.0178 41.235 42.4754 41.1289 42.8467 40.8922C43.2092 40.6608 43.475 40.3173 43.475 39.7978C43.475 39.2973 43.2893 38.9503 43.0196 38.7202C42.7435 38.4845 42.3592 38.3553 41.9466 38.3392C41.0924 38.3058 40.2963 38.7435 40.1437 39.4249C40.1285 39.4928 40.087 39.5519 40.0282 39.5892C39.9694 39.6265 39.8982 39.639 39.8302 39.6238C39.7623 39.6086 39.7031 39.567 39.6658 39.5082C39.6285 39.4494 39.6161 39.3782 39.6313 39.3103C39.7479 38.7898 40.0841 38.4089 40.5193 38.1595C40.9568 37.9087 41.4872 37.7959 41.9672 37.8148C42.4691 37.8344 42.9752 37.992 43.3605 38.3209C43.7525 38.6554 44 39.151 44 39.7978C44 40.5394 43.6027 41.0325 43.1292 41.3347C42.8086 41.5393 42.4465 41.6621 42.1275 41.7269ZM41.2875 43.8497C41.2875 43.7105 41.3428 43.577 41.4413 43.4785C41.5397 43.3801 41.6733 43.3247 41.8125 43.3247C41.9517 43.3247 42.0853 43.3801 42.1837 43.4785C42.2822 43.577 42.3375 43.7105 42.3375 43.8497C42.3375 43.9889 42.2822 44.1225 42.1837 44.2209C42.0853 44.3194 41.9517 44.3747 41.8125 44.3747C41.6733 44.3747 41.5397 44.3194 41.4413 44.2209C41.3428 44.1225 41.2875 43.9889 41.2875 43.8497Z" fill="#F8F8F8" stroke="#F8F8F8" stroke-width="0.34999" stroke-linecap="round" stroke-linejoin="round"/>
</g>
<circle cx="38" cy="38" r="30" stroke="#808080" stroke-width="2"/>
</g>
<defs>
<filter id="filter0_d_1_4851" x="0" y="0" width="78" height="78" filterUnits="userSpaceOnUse" color-interpolation-filters="sRGB">
<feFlood flood-opacity="0" result="BackgroundImageFix"/>
<feColorMatrix in="SourceAlpha" type="matrix" values="0 0 0 0 0 0 0 0 0 0 0 0 0 0 0 0 0 0 127 0" result="hardAlpha"/>
<feOffset dx="1" dy="1"/>
<feGaussianBlur stdDeviation="4"/>
<feComposite in2="hardAlpha" operator="out"/>
<feColorMatrix type="matrix" values="0 0 0 0 0 0 0 0 0 0 0 0 0 0 0 0 0 0 0.5 0"/>
<feBlend mode="normal" in2="BackgroundImageFix" result="effect1_dropShadow_1_4851"/>
<feBlend mode="normal" in="SourceGraphic" in2="effect1_dropShadow_1_4851" result="shape"/>
</filter>
<clipPath id="clip0_1_4851">
<rect width="24" height="23.9992" fill="white" transform="translate(26 26)"/>
</clipPath>
</defs>
</svg>
