<svg width="68" height="68" viewBox="0 0 68 68" fill="none" xmlns="http://www.w3.org/2000/svg">
<g filter="url(#filter0_d_1_4842)">
<rect x="7" y="7" width="52" height="52" rx="26" fill="white"/>
<g clip-path="url(#clip0_1_4842)">
<path d="M23.5781 21.0336C23.3344 21.0711 22.8422 21.2492 22.5703 21.3898C22.2 21.5867 21.5859 22.2007 21.3891 22.571C21.3094 22.7257 21.1922 22.9976 21.1313 23.1804L21.0234 23.5085V27.4693C21.0234 31.7582 21.0188 31.641 21.2813 32.2316C21.6234 32.991 22.4109 33.6941 23.1422 33.8862L23.3391 33.9378L23.3531 34.9128C23.3672 35.9955 23.3953 36.094 23.6859 36.2768C23.8734 36.394 24.1828 36.408 24.3656 36.3096C24.4359 36.2721 24.9891 35.7424 25.5938 35.1378L26.6953 34.0316H26.9109H27.1313L27.1547 32.9394C27.1734 31.9972 27.1875 31.8051 27.2766 31.5051C27.7313 29.9629 28.875 28.8192 30.4219 28.3505C30.7688 28.2474 30.8016 28.2474 34.1156 28.2286L37.4531 28.2146V25.9318C37.4531 23.4288 37.4438 23.3257 37.1672 22.7491C36.8766 22.1398 36.375 21.6382 35.7422 21.3242C35.0625 20.9867 35.3438 21.0008 29.2031 21.0101C26.175 21.0101 23.6438 21.0242 23.5781 21.0336Z" fill="black"/>
<path d="M30.8062 29.7204C29.7469 29.997 28.9125 30.8454 28.6359 31.9141C28.5516 32.2469 28.5469 32.4625 28.5469 36.0952C28.5469 38.5936 28.5656 40.0185 28.5984 40.2013C28.6219 40.3513 28.7437 40.6794 28.8609 40.9232C29.2266 41.6778 29.8828 42.2403 30.7266 42.5262L31.0547 42.6341L35.1797 42.6481L39.3047 42.6622L40.4531 43.8012C41.6766 45.0199 41.7281 45.0574 42.0891 44.9777C42.2531 44.9449 42.4875 44.7621 42.5766 44.6074C42.6141 44.5418 42.6422 44.1762 42.6562 43.5293L42.6797 42.5497L42.8672 42.4934C43.1812 42.3997 43.6172 42.1559 43.9172 41.9075C44.4469 41.4669 44.85 40.7404 44.9531 40.0513C44.9812 39.8591 45 38.2326 45 36.0483C45 31.9329 45.0047 31.9985 44.6766 31.3376C44.3625 30.7048 43.8609 30.2032 43.2516 29.9126C42.6328 29.6173 42.9 29.6267 36.75 29.6314C31.3875 29.6314 31.1344 29.6361 30.8062 29.7204Z" fill="black"/>
<path d="M37.1275 36.7264C37.088 36.7345 37.0524 36.7559 37.0269 36.7872C37.0014 36.8184 36.9875 36.8576 36.9875 36.8979V37.2743C36.9875 37.3439 36.9598 37.4107 36.9106 37.4599C36.8614 37.5091 36.7946 37.5368 36.725 37.5368C36.6554 37.5368 36.5886 37.5091 36.5394 37.4599C36.4902 37.4107 36.4625 37.3439 36.4625 37.2743V36.518C36.4625 36.4516 36.4877 36.3876 36.533 36.339C36.5783 36.2904 36.6404 36.2609 36.7066 36.2562C37.0178 36.2345 37.4754 36.1285 37.8467 35.8917C38.2092 35.6604 38.475 35.3168 38.475 34.7973C38.475 34.2968 38.2893 33.9498 38.0196 33.7197C37.7435 33.484 37.3592 33.3548 36.9466 33.3387C36.0924 33.3053 35.2963 33.743 35.1437 34.4244C35.1285 34.4923 35.087 34.5515 35.0282 34.5888C34.9694 34.626 34.8982 34.6385 34.8302 34.6233C34.7623 34.6081 34.7031 34.5665 34.6658 34.5077C34.6285 34.4489 34.6161 34.3777 34.6313 34.3098C34.7479 33.7893 35.0841 33.4084 35.5193 33.159C35.9568 32.9083 36.4872 32.7954 36.9672 32.8143C37.4691 32.8339 37.9752 32.9916 38.3605 33.3204C38.7525 33.6549 39 34.1505 39 34.7973C39 35.5389 38.6027 36.032 38.1292 36.3342C37.8086 36.5388 37.4465 36.6617 37.1275 36.7264ZM36.2875 38.8492C36.2875 38.71 36.3428 38.5765 36.4413 38.478C36.5397 38.3796 36.6733 38.3243 36.8125 38.3243C36.9517 38.3243 37.0853 38.3796 37.1837 38.478C37.2822 38.5765 37.3375 38.71 37.3375 38.8492C37.3375 38.9885 37.2822 39.122 37.1837 39.2204C37.0853 39.3189 36.9517 39.3742 36.8125 39.3742C36.6733 39.3742 36.5397 39.3189 36.4413 39.2204C36.3428 39.122 36.2875 38.9885 36.2875 38.8492Z" fill="#F8F8F8" stroke="#F8F8F8" stroke-width="0.34999" stroke-linecap="round" stroke-linejoin="round"/>
</g>
</g>
<defs>
<filter id="filter0_d_1_4842" x="0" y="0" width="68" height="68" filterUnits="userSpaceOnUse" color-interpolation-filters="sRGB">
<feFlood flood-opacity="0" result="BackgroundImageFix"/>
<feColorMatrix in="SourceAlpha" type="matrix" values="0 0 0 0 0 0 0 0 0 0 0 0 0 0 0 0 0 0 127 0" result="hardAlpha"/>
<feOffset dx="1" dy="1"/>
<feGaussianBlur stdDeviation="4"/>
<feComposite in2="hardAlpha" operator="out"/>
<feColorMatrix type="matrix" values="0 0 0 0 0 0 0 0 0 0 0 0 0 0 0 0 0 0 0.5 0"/>
<feBlend mode="normal" in2="BackgroundImageFix" result="effect1_dropShadow_1_4842"/>
<feBlend mode="normal" in="SourceGraphic" in2="effect1_dropShadow_1_4842" result="shape"/>
</filter>
<clipPath id="clip0_1_4842">
<rect width="24" height="23.9992" fill="white" transform="translate(21 20.9995)"/>
</clipPath>
</defs>
</svg>
