<svg width="78" height="78" viewBox="0 0 78 78" fill="none" xmlns="http://www.w3.org/2000/svg">
<g filter="url(#filter0_d_1_4769)">
<rect x="12" y="12" width="52" height="52" rx="26" fill="#F8F8F8" shape-rendering="crispEdges"/>
<g clip-path="url(#clip0_1_4769)">
<path d="M45.5638 51.6245C46.0398 51.4995 46.2015 51.112 46.2503 49.9586C46.2717 49.5284 46.2961 49.2721 46.3418 49.0891C46.4242 48.7504 46.6805 48.2317 46.9429 47.8839C47.309 47.3957 48.0291 46.7306 48.5905 46.3583L48.7217 46.2729V42.2393V38.2027L48.383 38.0593C47.4799 37.6779 46.3052 37.3697 45.0756 37.1927C44.1694 37.0615 43.5836 37.028 42.2076 37.0249C40.9322 37.0219 40.8895 37.0249 40.6576 37.0921C39.7576 37.3514 39.0985 37.9799 38.8392 38.822C38.8026 38.938 38.5982 40.0303 38.3846 41.2477C38.0154 43.3682 38.0001 43.4781 38.0001 43.8717C38.0032 44.2286 38.0154 44.3202 38.0856 44.5582C38.3236 45.3453 38.8758 45.9586 39.6172 46.2546C40.0474 46.4285 40.1451 46.4346 41.9788 46.4346H43.6508L43.544 46.7336C43.2968 47.4262 43.187 48.1005 43.187 48.9365C43.187 49.5834 43.2206 49.8 43.3731 50.1814C43.5074 50.52 43.6538 50.7397 43.9284 51.0113C44.2 51.2828 44.4532 51.4415 44.8071 51.5635C44.9993 51.6307 45.4173 51.6642 45.5638 51.6245Z" fill="#0F0F0F"/>
<path d="M52.8134 46.8743C53.146 46.7736 53.4389 46.4746 53.5426 46.1298C53.6036 45.9346 53.6036 45.8552 53.5975 41.9803L53.5884 38.0291L53.4877 37.8247C53.3656 37.5745 53.1246 37.3457 52.8775 37.245C52.7066 37.1748 52.6822 37.1748 51.6509 37.1748C50.6197 37.1748 50.5952 37.1748 50.4244 37.245C50.1772 37.3457 49.9362 37.5745 49.8142 37.8247L49.7135 38.0291L49.7043 41.9803C49.6982 45.8552 49.6982 45.9346 49.7592 46.1298C49.866 46.4838 50.1559 46.7736 50.5007 46.8774C50.7203 46.9414 52.6029 46.9414 52.8134 46.8743Z" fill="#0F0F0F"/>
<path d="M30.4352 24.3745C29.9593 24.4996 29.7975 24.8871 29.7487 26.0404C29.7274 26.4706 29.703 26.7269 29.6572 26.91C29.5748 27.2486 29.3185 27.7673 29.0561 28.1151C28.69 28.6033 27.9699 29.2685 27.4085 29.6407L27.2773 29.7261V33.7597V37.7964L27.616 37.9398C28.5191 38.3211 29.6938 38.6293 30.9234 38.8063C31.8296 38.9375 32.4154 38.971 33.7914 38.9741C35.0668 38.9771 35.1095 38.9741 35.3414 38.907C36.2415 38.6476 36.9005 38.0191 37.1598 37.177C37.1964 37.061 37.4009 35.9687 37.6144 34.7513C37.9836 32.6308 37.9989 32.521 37.9989 32.1274C37.9958 31.7704 37.9836 31.6789 37.9135 31.4409C37.6755 30.6537 37.1232 30.0404 36.3818 29.7444C35.9516 29.5705 35.854 29.5644 34.0203 29.5644H32.3483L32.455 29.2654C32.7022 28.5728 32.812 27.8985 32.812 27.0625C32.812 26.4157 32.7785 26.199 32.6259 25.8177C32.4917 25.479 32.3452 25.2593 32.0706 24.9877C31.7991 24.7162 31.5458 24.5575 31.1919 24.4355C30.9997 24.3684 30.5817 24.3348 30.4352 24.3745Z" fill="#0F0F0F"/>
<path d="M23.1856 29.1247C22.8531 29.2254 22.5602 29.5244 22.4564 29.8692C22.3954 30.0645 22.3954 30.1438 22.4015 34.0187L22.4107 37.9699L22.5113 38.1743C22.6334 38.4245 22.8744 38.6534 23.1216 38.754C23.2924 38.8242 23.3168 38.8242 24.3481 38.8242C25.3794 38.8242 25.4038 38.8242 25.5746 38.754C25.8218 38.6534 26.0628 38.4245 26.1849 38.1743L26.2855 37.9699L26.2947 34.0187C26.3008 30.1438 26.3008 30.0645 26.2398 29.8692C26.133 29.5152 25.8431 29.2254 25.4984 29.1217C25.2787 29.0576 23.3962 29.0576 23.1856 29.1247Z" fill="#0F0F0F"/>
</g>
<circle cx="38" cy="38" r="30" stroke="#808080" stroke-width="2"/>
</g>
<defs>
<filter id="filter0_d_1_4769" x="0" y="0" width="78" height="78" filterUnits="userSpaceOnUse" color-interpolation-filters="sRGB">
<feFlood flood-opacity="0" result="BackgroundImageFix"/>
<feColorMatrix in="SourceAlpha" type="matrix" values="0 0 0 0 0 0 0 0 0 0 0 0 0 0 0 0 0 0 127 0" result="hardAlpha"/>
<feOffset dx="1" dy="1"/>
<feGaussianBlur stdDeviation="4"/>
<feComposite in2="hardAlpha" operator="out"/>
<feColorMatrix type="matrix" values="0 0 0 0 0 0 0 0 0 0 0 0 0 0 0 0 0 0 0.5 0"/>
<feBlend mode="normal" in2="BackgroundImageFix" result="effect1_dropShadow_1_4769"/>
<feBlend mode="normal" in="SourceGraphic" in2="effect1_dropShadow_1_4769" result="shape"/>
</filter>
<clipPath id="clip0_1_4769">
<rect width="31.2" height="31.2" fill="white" transform="translate(22.3999 22.3999)"/>
</clipPath>
</defs>
</svg>
