<svg width="68" height="68" viewBox="0 0 68 68" fill="none" xmlns="http://www.w3.org/2000/svg">
<g filter="url(#filter0_d_1_4786)">
<rect x="7" y="7" width="52" height="52" rx="26" fill="white"/>
<g clip-path="url(#clip0_1_4786)">
<path d="M40.5638 46.6245C41.0398 46.4995 41.2015 46.112 41.2503 44.9586C41.2717 44.5284 41.2961 44.2721 41.3418 44.0891C41.4242 43.7504 41.6805 43.2317 41.9429 42.8839C42.309 42.3957 43.0291 41.7306 43.5905 41.3583L43.7217 41.2729V37.2393V33.2027L43.383 33.0593C42.4799 32.6779 41.3052 32.3697 40.0756 32.1927C39.1694 32.0615 38.5836 32.028 37.2076 32.0249C35.9322 32.0219 35.8895 32.0249 35.6576 32.0921C34.7576 32.3514 34.0985 32.9799 33.8392 33.822C33.8026 33.938 33.5982 35.0303 33.3846 36.2477C33.0154 38.3682 33.0001 38.4781 33.0001 38.8717C33.0032 39.2286 33.0154 39.3202 33.0856 39.5582C33.3236 40.3453 33.8758 40.9586 34.6172 41.2546C35.0474 41.4285 35.1451 41.4346 36.9788 41.4346H38.6508L38.544 41.7336C38.2968 42.4262 38.187 43.1005 38.187 43.9365C38.187 44.5834 38.2206 44.8 38.3731 45.1814C38.5074 45.52 38.6538 45.7397 38.9284 46.0113C39.2 46.2828 39.4532 46.4415 39.8071 46.5635C39.9993 46.6307 40.4173 46.6642 40.5638 46.6245Z" fill="#0F0F0F"/>
<path d="M47.8134 41.8743C48.146 41.7736 48.4389 41.4746 48.5426 41.1298C48.6036 40.9346 48.6036 40.8552 48.5975 36.9803L48.5884 33.0291L48.4877 32.8247C48.3656 32.5745 48.1246 32.3457 47.8775 32.245C47.7066 32.1748 47.6822 32.1748 46.6509 32.1748C45.6197 32.1748 45.5952 32.1748 45.4244 32.245C45.1772 32.3457 44.9362 32.5745 44.8142 32.8247L44.7135 33.0291L44.7043 36.9803C44.6982 40.8552 44.6982 40.9346 44.7592 41.1298C44.866 41.4838 45.1559 41.7736 45.5007 41.8774C45.7203 41.9414 47.6029 41.9414 47.8134 41.8743Z" fill="#0F0F0F"/>
<path d="M25.4352 19.3745C24.9593 19.4996 24.7975 19.8871 24.7487 21.0404C24.7274 21.4706 24.703 21.7269 24.6572 21.91C24.5748 22.2486 24.3185 22.7673 24.0561 23.1151C23.69 23.6033 22.9699 24.2685 22.4085 24.6407L22.2773 24.7261V28.7597V32.7964L22.616 32.9398C23.5191 33.3211 24.6938 33.6293 25.9234 33.8063C26.8296 33.9375 27.4154 33.971 28.7914 33.9741C30.0668 33.9771 30.1095 33.9741 30.3414 33.907C31.2415 33.6476 31.9005 33.0191 32.1598 32.177C32.1964 32.061 32.4009 30.9687 32.6144 29.7513C32.9836 27.6308 32.9989 27.521 32.9989 27.1274C32.9958 26.7704 32.9836 26.6789 32.9135 26.4409C32.6755 25.6537 32.1232 25.0404 31.3818 24.7444C30.9516 24.5705 30.854 24.5644 29.0203 24.5644H27.3483L27.455 24.2654C27.7022 23.5728 27.812 22.8985 27.812 22.0625C27.812 21.4157 27.7785 21.199 27.6259 20.8177C27.4917 20.479 27.3452 20.2593 27.0706 19.9877C26.7991 19.7162 26.5458 19.5575 26.1919 19.4355C25.9997 19.3684 25.5817 19.3348 25.4352 19.3745Z" fill="#0F0F0F"/>
<path d="M18.1856 24.1247C17.8531 24.2254 17.5602 24.5244 17.4564 24.8692C17.3954 25.0645 17.3954 25.1438 17.4015 29.0187L17.4107 32.9699L17.5113 33.1743C17.6334 33.4245 17.8744 33.6534 18.1216 33.754C18.2924 33.8242 18.3168 33.8242 19.3481 33.8242C20.3794 33.8242 20.4038 33.8242 20.5746 33.754C20.8218 33.6534 21.0628 33.4245 21.1849 33.1743L21.2855 32.9699L21.2947 29.0187C21.3008 25.1438 21.3008 25.0645 21.2398 24.8692C21.133 24.5152 20.8431 24.2254 20.4984 24.1217C20.2787 24.0576 18.3962 24.0576 18.1856 24.1247Z" fill="#0F0F0F"/>
</g>
</g>
<defs>
<filter id="filter0_d_1_4786" x="0" y="0" width="68" height="68" filterUnits="userSpaceOnUse" color-interpolation-filters="sRGB">
<feFlood flood-opacity="0" result="BackgroundImageFix"/>
<feColorMatrix in="SourceAlpha" type="matrix" values="0 0 0 0 0 0 0 0 0 0 0 0 0 0 0 0 0 0 127 0" result="hardAlpha"/>
<feOffset dx="1" dy="1"/>
<feGaussianBlur stdDeviation="4"/>
<feComposite in2="hardAlpha" operator="out"/>
<feColorMatrix type="matrix" values="0 0 0 0 0 0 0 0 0 0 0 0 0 0 0 0 0 0 0.5 0"/>
<feBlend mode="normal" in2="BackgroundImageFix" result="effect1_dropShadow_1_4786"/>
<feBlend mode="normal" in="SourceGraphic" in2="effect1_dropShadow_1_4786" result="shape"/>
</filter>
<clipPath id="clip0_1_4786">
<rect width="31.2" height="31.2" fill="white" transform="translate(17.3999 17.3999)"/>
</clipPath>
</defs>
</svg>
