<svg width="406" height="50" viewBox="0 0 406 50" fill="none" xmlns="http://www.w3.org/2000/svg">
<path d="M20.8853 33V18.4867H15.1784V15.7809H29.7901V18.4867H24.0832V33H20.8853ZM46.3425 15.7809H49.5403V33H46.3425V15.7809ZM37.4377 33H34.2399V15.7809H37.4377V33ZM46.5885 25.6204H37.1671V22.8899H46.5885V25.6204ZM59.156 22.9391H67.7164V25.5712H59.156V22.9391ZM59.402 30.3187H69.1185V33H56.2042V15.7809H68.7742V18.4621H59.402V30.3187Z" fill="#F8F8F8"/>
<rect width="148.175" height="29.3243" transform="translate(78.4127 10.3379)" fill="#F8F8F8"/>
<path d="M84.4032 33V15.7809H91.4876C93.0127 15.7809 94.3165 16.0269 95.3988 16.5188C96.4976 17.0108 97.3421 17.716 97.9325 18.6343C98.5228 19.5527 98.818 20.6432 98.818 21.906C98.818 23.1687 98.5228 24.2592 97.9325 25.1776C97.3421 26.0959 96.4976 26.8011 95.3988 27.2931C94.3165 27.7851 93.0127 28.0311 91.4876 28.0311H86.1743L87.601 26.5305V33H84.4032ZM87.601 26.8749L86.1743 25.3252H91.34C92.7503 25.3252 93.8081 25.03 94.5133 24.4396C95.2348 23.8329 95.5956 22.9883 95.5956 21.906C95.5956 20.8072 95.2348 19.9627 94.5133 19.3723C93.8081 18.7819 92.7503 18.4867 91.34 18.4867H86.1743L87.601 16.9124V26.8749ZM104.061 33V15.7809H111.146C112.671 15.7809 113.975 16.0269 115.057 16.5188C116.156 17.0108 117 17.716 117.591 18.6343C118.181 19.5527 118.476 20.6432 118.476 21.906C118.476 23.1687 118.181 24.2592 117.591 25.1776C117 26.0796 116.156 26.7765 115.057 27.2685C113.975 27.7441 112.671 27.9819 111.146 27.9819H105.832L107.259 26.5305V33H104.061ZM115.328 33L110.974 26.7519H114.393L118.771 33H115.328ZM107.259 26.8749L105.832 25.3498H110.998C112.409 25.3498 113.466 25.0464 114.171 24.4396C114.893 23.8329 115.254 22.9883 115.254 21.906C115.254 20.8072 114.893 19.9627 114.171 19.3723C113.466 18.7819 112.409 18.4867 110.998 18.4867H105.832L107.259 16.9124V26.8749ZM132.172 33.246C130.828 33.246 129.589 33.0246 128.458 32.5818C127.326 32.139 126.342 31.5241 125.506 30.7369C124.67 29.9334 124.022 28.9986 123.563 27.9327C123.104 26.8503 122.874 25.6696 122.874 24.3904C122.874 23.1113 123.104 21.9388 123.563 20.8728C124.022 19.7905 124.67 18.8557 125.506 18.0686C126.342 17.265 127.326 16.6418 128.458 16.1991C129.589 15.7563 130.819 15.5349 132.148 15.5349C133.492 15.5349 134.722 15.7563 135.837 16.1991C136.969 16.6418 137.953 17.265 138.789 18.0686C139.626 18.8557 140.273 19.7905 140.733 20.8728C141.192 21.9388 141.421 23.1113 141.421 24.3904C141.421 25.6696 141.192 26.8503 140.733 27.9327C140.273 29.015 139.626 29.9498 138.789 30.7369C137.953 31.5241 136.969 32.139 135.837 32.5818C134.722 33.0246 133.501 33.246 132.172 33.246ZM132.148 30.4417C133.017 30.4417 133.82 30.2941 134.558 29.999C135.296 29.7038 135.936 29.2856 136.477 28.7444C137.018 28.1868 137.436 27.5473 137.732 26.8257C138.043 26.0878 138.199 25.276 138.199 24.3904C138.199 23.5049 138.043 22.7013 137.732 21.9798C137.436 21.2418 137.018 20.6022 136.477 20.0611C135.936 19.5035 135.296 19.0771 134.558 18.7819C133.82 18.4867 133.017 18.3391 132.148 18.3391C131.279 18.3391 130.475 18.4867 129.737 18.7819C129.015 19.0771 128.376 19.5035 127.818 20.0611C127.277 20.6022 126.851 21.2418 126.539 21.9798C126.244 22.7013 126.096 23.5049 126.096 24.3904C126.096 25.2596 126.244 26.0632 126.539 26.8011C126.851 27.5391 127.277 28.1868 127.818 28.7444C128.359 29.2856 128.999 29.7038 129.737 29.999C130.475 30.2941 131.279 30.4417 132.148 30.4417ZM146.861 33V15.7809H154.388C156.258 15.7809 157.898 16.1417 159.308 16.8632C160.718 17.5848 161.817 18.5851 162.604 19.8643C163.391 21.1434 163.785 22.6521 163.785 24.3904C163.785 26.1123 163.391 27.6211 162.604 28.9166C161.817 30.1957 160.718 31.1961 159.308 31.9177C157.898 32.6392 156.258 33 154.388 33H146.861ZM150.059 30.2941H154.241C155.536 30.2941 156.651 30.0481 157.586 29.5562C158.537 29.0642 159.267 28.3754 159.775 27.4899C160.3 26.6043 160.562 25.5712 160.562 24.3904C160.562 23.1933 160.3 22.1602 159.775 21.291C159.267 20.4054 158.537 19.7167 157.586 19.2247C156.651 18.7327 155.536 18.4867 154.241 18.4867H150.059V30.2941ZM176.638 33.246C174.276 33.246 172.423 32.5818 171.079 31.2535C169.75 29.9252 169.086 28.0065 169.086 25.4974V15.7809H172.284V25.3744C172.284 27.1455 172.661 28.4328 173.415 29.2364C174.186 30.04 175.269 30.4417 176.662 30.4417C178.056 30.4417 179.131 30.04 179.885 29.2364C180.639 28.4328 181.016 27.1455 181.016 25.3744V15.7809H184.165V25.4974C184.165 28.0065 183.493 29.9252 182.148 31.2535C180.82 32.5818 178.983 33.246 176.638 33.246ZM198.663 33.246C197.352 33.246 196.13 33.0328 194.998 32.6064C193.883 32.1636 192.907 31.5487 192.071 30.7615C191.251 29.958 190.611 29.015 190.152 27.9327C189.693 26.8503 189.464 25.6696 189.464 24.3904C189.464 23.1113 189.693 21.9306 190.152 20.8482C190.611 19.7659 191.259 18.8311 192.096 18.044C192.932 17.2404 193.908 16.6254 195.023 16.1991C196.138 15.7563 197.36 15.5349 198.688 15.5349C200.098 15.5349 201.386 15.7809 202.55 16.2728C203.714 16.7484 204.698 17.4618 205.502 18.4129L203.436 20.3562C202.812 19.6839 202.115 19.1837 201.345 18.8557C200.574 18.5113 199.738 18.3391 198.836 18.3391C197.934 18.3391 197.106 18.4867 196.351 18.7819C195.613 19.0771 194.965 19.4953 194.408 20.0365C193.867 20.5776 193.44 21.2172 193.129 21.9552C192.834 22.6931 192.686 23.5049 192.686 24.3904C192.686 25.276 192.834 26.0878 193.129 26.8257C193.44 27.5637 193.867 28.2032 194.408 28.7444C194.965 29.2856 195.613 29.7038 196.351 29.999C197.106 30.2941 197.934 30.4417 198.836 30.4417C199.738 30.4417 200.574 30.2777 201.345 29.9498C202.115 29.6054 202.812 29.0888 203.436 28.4L205.502 30.3679C204.698 31.3027 203.714 32.016 202.55 32.508C201.386 33 200.09 33.246 198.663 33.246ZM213.917 33V18.4867H208.21V15.7809H222.821V18.4867H217.115V33H213.917Z" fill="#0F0F0F"/>
<path d="M236.722 33V15.7809H243.807C245.332 15.7809 246.636 16.0269 247.718 16.5188C248.817 17.0108 249.661 17.716 250.252 18.6343C250.842 19.5527 251.137 20.6432 251.137 21.906C251.137 23.1687 250.842 24.2592 250.252 25.1776C249.661 26.0959 248.817 26.8011 247.718 27.2931C246.636 27.7851 245.332 28.0311 243.807 28.0311H238.493L239.92 26.5305V33H236.722ZM239.92 26.8749L238.493 25.3252H243.659C245.069 25.3252 246.127 25.03 246.832 24.4396C247.554 23.8329 247.915 22.9883 247.915 21.906C247.915 20.8072 247.554 19.9627 246.832 19.3723C246.127 18.7819 245.069 18.4867 243.659 18.4867H238.493L239.92 16.9124V26.8749ZM256.38 33V15.7809H259.578V30.2941H268.581V33H256.38ZM270.745 33L278.493 15.7809H281.642L289.415 33H286.07L279.403 17.4782H280.683L274.041 33H270.745ZM274.311 29.015L275.172 26.5059H284.471L285.332 29.015H274.311ZM296.283 33V18.4867H290.576V15.7809H305.188V18.4867H299.481V33H296.283ZM312.565 23.7017H321.15V26.4075H312.565V23.7017ZM312.835 33H309.638V15.7809H322.208V18.4621H312.835V33ZM335.226 33.246C333.882 33.246 332.643 33.0246 331.512 32.5818C330.38 32.139 329.396 31.5241 328.56 30.7369C327.724 29.9334 327.076 28.9986 326.617 27.9327C326.158 26.8503 325.928 25.6696 325.928 24.3904C325.928 23.1113 326.158 21.9388 326.617 20.8728C327.076 19.7905 327.724 18.8557 328.56 18.0686C329.396 17.265 330.38 16.6418 331.512 16.1991C332.643 15.7563 333.873 15.5349 335.202 15.5349C336.546 15.5349 337.776 15.7563 338.891 16.1991C340.023 16.6418 341.007 17.265 341.843 18.0686C342.68 18.8557 343.327 19.7905 343.787 20.8728C344.246 21.9388 344.475 23.1113 344.475 24.3904C344.475 25.6696 344.246 26.8503 343.787 27.9327C343.327 29.015 342.68 29.9498 341.843 30.7369C341.007 31.5241 340.023 32.139 338.891 32.5818C337.776 33.0246 336.555 33.246 335.226 33.246ZM335.202 30.4417C336.071 30.4417 336.874 30.2941 337.612 29.999C338.35 29.7038 338.99 29.2856 339.531 28.7444C340.072 28.1868 340.49 27.5473 340.786 26.8257C341.097 26.0878 341.253 25.276 341.253 24.3904C341.253 23.5049 341.097 22.7013 340.786 21.9798C340.49 21.2418 340.072 20.6022 339.531 20.0611C338.99 19.5035 338.35 19.0771 337.612 18.7819C336.874 18.4867 336.071 18.3391 335.202 18.3391C334.333 18.3391 333.529 18.4867 332.791 18.7819C332.069 19.0771 331.43 19.5035 330.872 20.0611C330.331 20.6022 329.905 21.2418 329.593 21.9798C329.298 22.7013 329.15 23.5049 329.15 24.3904C329.15 25.2596 329.298 26.0632 329.593 26.8011C329.905 27.5391 330.331 28.1868 330.872 28.7444C331.413 29.2856 332.053 29.7038 332.791 29.999C333.529 30.2941 334.333 30.4417 335.202 30.4417ZM349.915 33V15.7809H356.999C358.524 15.7809 359.828 16.0269 360.911 16.5188C362.009 17.0108 362.854 17.716 363.444 18.6343C364.035 19.5527 364.33 20.6432 364.33 21.906C364.33 23.1687 364.035 24.2592 363.444 25.1776C362.854 26.0796 362.009 26.7765 360.911 27.2685C359.828 27.7441 358.524 27.9819 356.999 27.9819H351.686L353.113 26.5305V33H349.915ZM361.181 33L356.827 26.7519H360.246L364.625 33H361.181ZM353.113 26.8749L351.686 25.3498H356.852C358.262 25.3498 359.32 25.0464 360.025 24.4396C360.747 23.8329 361.107 22.9883 361.107 21.906C361.107 20.8072 360.747 19.9627 360.025 19.3723C359.32 18.7819 358.262 18.4867 356.852 18.4867H351.686L353.113 16.9124V26.8749ZM369.957 33V15.7809H372.59L380.117 28.3508H378.739L386.143 15.7809H388.775L388.8 33H385.774L385.75 20.5284H386.389L380.092 31.0321H378.665L372.27 20.5284H373.008V33H369.957Z" fill="#F8F8F8"/>
</svg>
