<svg width="78" height="78" viewBox="0 0 78 78" fill="none" xmlns="http://www.w3.org/2000/svg">
<g filter="url(#filter0_d_1_4811)">
<rect x="12" y="12" width="52" height="52" rx="26" fill="#F8F8F8" shape-rendering="crispEdges"/>
<path d="M28.8594 38.869V49.269H30.3354H30.9448V45.4787V41.6844L31.2576 41.53C33.2035 40.5834 35.4014 40.4859 37.3635 41.2659C37.591 41.3553 38.1639 41.6275 38.6351 41.8712C39.1104 42.115 39.6792 42.3872 39.9067 42.4765C41.8485 43.2484 43.896 43.3094 45.8745 42.6553C46.2401 42.5334 46.7195 42.3303 47.2151 42.0784L47.987 41.6925L47.9992 35.4687L48.0073 29.245L47.5117 29.5334C45.8176 30.5044 44.6354 30.8659 43.1323 30.8659C42.4417 30.8659 41.8689 30.7928 41.227 30.6181C40.5648 30.4434 40.1545 30.2728 39.0089 29.6878C37.9404 29.1475 37.4529 28.9525 36.6567 28.7534C35.4217 28.4406 34.0079 28.4244 32.7445 28.7087C32.2773 28.8144 31.6842 29.0012 31.2657 29.18L30.9448 29.314V28.8915V28.469H30.3354H28.8594V38.869Z" fill="#0F0F0F"/>
<circle cx="38" cy="38" r="30" stroke="#808080" stroke-width="2"/>
</g>
<defs>
<filter id="filter0_d_1_4811" x="0" y="0" width="78" height="78" filterUnits="userSpaceOnUse" color-interpolation-filters="sRGB">
<feFlood flood-opacity="0" result="BackgroundImageFix"/>
<feColorMatrix in="SourceAlpha" type="matrix" values="0 0 0 0 0 0 0 0 0 0 0 0 0 0 0 0 0 0 127 0" result="hardAlpha"/>
<feOffset dx="1" dy="1"/>
<feGaussianBlur stdDeviation="4"/>
<feComposite in2="hardAlpha" operator="out"/>
<feColorMatrix type="matrix" values="0 0 0 0 0 0 0 0 0 0 0 0 0 0 0 0 0 0 0.5 0"/>
<feBlend mode="normal" in2="BackgroundImageFix" result="effect1_dropShadow_1_4811"/>
<feBlend mode="normal" in="SourceGraphic" in2="effect1_dropShadow_1_4811" result="shape"/>
</filter>
</defs>
</svg>
