<svg width="68" height="68" viewBox="0 0 68 68" fill="none" xmlns="http://www.w3.org/2000/svg">
<g filter="url(#filter0_d_1_4858)">
<rect x="7" y="7" width="52" height="52" rx="26" fill="white"/>
<path d="M21.9341 24.5337V27.6325H38.9778V24.5337H21.9341ZM21.9341 30.7314V33.8302H38.9778V30.7314H21.9341ZM48.2743 30.8863C48.1194 30.8863 47.8095 31.0413 47.6545 31.1962L46.1051 32.7456L49.3589 35.9994L50.9083 34.45C51.2182 34.1401 51.2182 33.5204 50.9083 33.2105L48.8941 31.1962C48.7391 31.0413 48.5842 30.8863 48.2743 30.8863ZM45.3304 33.6753L35.8789 42.9719V46.2256H39.1327L48.5842 36.7741L45.3304 33.6753ZM21.9341 36.9291V40.0279H32.7801V36.9291H21.9341Z" fill="#0F0F0F"/>
</g>
<defs>
<filter id="filter0_d_1_4858" x="0" y="0" width="68" height="68" filterUnits="userSpaceOnUse" color-interpolation-filters="sRGB">
<feFlood flood-opacity="0" result="BackgroundImageFix"/>
<feColorMatrix in="SourceAlpha" type="matrix" values="0 0 0 0 0 0 0 0 0 0 0 0 0 0 0 0 0 0 127 0" result="hardAlpha"/>
<feOffset dx="1" dy="1"/>
<feGaussianBlur stdDeviation="4"/>
<feComposite in2="hardAlpha" operator="out"/>
<feColorMatrix type="matrix" values="0 0 0 0 0 0 0 0 0 0 0 0 0 0 0 0 0 0 0.5 0"/>
<feBlend mode="normal" in2="BackgroundImageFix" result="effect1_dropShadow_1_4858"/>
<feBlend mode="normal" in="SourceGraphic" in2="effect1_dropShadow_1_4858" result="shape"/>
</filter>
</defs>
</svg>
