<svg width="56" height="56" viewBox="0 0 56 56" fill="none" xmlns="http://www.w3.org/2000/svg">
<rect x="4" y="4" width="48" height="48" rx="24" fill="#F8F8F8"/>
<path d="M17.3994 19.8003V22.6608H33.132V19.8003H17.3994ZM17.3994 25.5212V28.3817H33.132V25.5212H17.3994ZM41.7135 25.6643C41.5704 25.6643 41.2844 25.8073 41.1414 25.9503L39.7111 27.3806L42.7146 30.3841L44.1449 28.9538C44.4309 28.6678 44.4309 28.0957 44.1449 27.8096L42.2856 25.9503C42.1425 25.8073 41.9995 25.6643 41.7135 25.6643ZM38.996 28.2387L30.2716 36.8201V39.8236H33.2751L41.9995 31.0992L38.996 28.2387ZM17.3994 31.2422V34.1027H27.4111V31.2422H17.3994Z" fill="#0F0F0F"/>
<circle cx="28" cy="28" r="26.75" stroke="#F7F7F7" stroke-width="1.5"/>
</svg>
