<svg width="78" height="78" viewBox="0 0 78 78" fill="none" xmlns="http://www.w3.org/2000/svg">
<g filter="url(#filter0_d_1_4848)">
<rect x="12" y="12" width="52" height="52" rx="26" fill="#F8F8F8" shape-rendering="crispEdges"/>
<path d="M26.9341 29.5337V32.6325H43.9778V29.5337H26.9341ZM26.9341 35.7314V38.8302H43.9778V35.7314H26.9341ZM53.2743 35.8863C53.1194 35.8863 52.8095 36.0413 52.6545 36.1962L51.1051 37.7456L54.3589 40.9994L55.9083 39.45C56.2182 39.1401 56.2182 38.5204 55.9083 38.2105L53.8941 36.1962C53.7391 36.0413 53.5842 35.8863 53.2743 35.8863ZM50.3304 38.6753L40.8789 47.9719V51.2256H44.1327L53.5842 41.7741L50.3304 38.6753ZM26.9341 41.9291V45.0279H37.7801V41.9291H26.9341Z" fill="#0F0F0F"/>
<circle cx="38" cy="38" r="30" stroke="#808080" stroke-width="2"/>
</g>
<defs>
<filter id="filter0_d_1_4848" x="0" y="0" width="78" height="78" filterUnits="userSpaceOnUse" color-interpolation-filters="sRGB">
<feFlood flood-opacity="0" result="BackgroundImageFix"/>
<feColorMatrix in="SourceAlpha" type="matrix" values="0 0 0 0 0 0 0 0 0 0 0 0 0 0 0 0 0 0 127 0" result="hardAlpha"/>
<feOffset dx="1" dy="1"/>
<feGaussianBlur stdDeviation="4"/>
<feComposite in2="hardAlpha" operator="out"/>
<feColorMatrix type="matrix" values="0 0 0 0 0 0 0 0 0 0 0 0 0 0 0 0 0 0 0.5 0"/>
<feBlend mode="normal" in2="BackgroundImageFix" result="effect1_dropShadow_1_4848"/>
<feBlend mode="normal" in="SourceGraphic" in2="effect1_dropShadow_1_4848" result="shape"/>
</filter>
</defs>
</svg>
